<svg id="Layer_1" data-name="Layer 1" xmlns="http://www.w3.org/2000/svg" viewBox="0 0 166.83 166.28"><defs><style>.cls-1{fill:none;stroke:#2d172c;stroke-linecap:round;stroke-linejoin:round;stroke-width:4px;}</style></defs><title>build</title><path class="cls-1" d="M102,119.14l2.16,2.61c-4.36,8.92-1.32,19,5.42,27.11a26.06,26.06,0,0,0,26.7,8.57A1.49,1.49,0,0,0,137,155L122.82,137.9a8.88,8.88,0,0,1,1.3-12.61,9.07,9.07,0,0,1,12.56,1.5l14,16.92a1.49,1.49,0,0,0,2.48-.28A26.06,26.06,0,0,0,123,107l-.28.08L119.36,103"/><path class="cls-1" d="M73.35,47.52l.13-.26A26.06,26.06,0,0,0,43.32,10.85a1.49,1.49,0,0,0-.74,2.39l14,16.92a9.07,9.07,0,0,1-.86,12.62,8.88,8.88,0,0,1-12.63-1.06L28.91,24.57a1.49,1.49,0,0,0-2.48.28A26.06,26.06,0,0,0,56.88,61.17"/><polyline class="cls-1" points="100 118.95 84.97 135.08 67.67 131.73 46.18 153.22"/><path class="cls-1" d="M76.21,48.95h2A7.77,7.77,0,0,1,86,56.71V70a0,0,0,0,1,0,0H68.45a0,0,0,0,1,0,0V56.71a7.77,7.77,0,0,1,7.77-7.77Z" transform="translate(64.69 -37.19) rotate(45)"/><path class="cls-1" d="M88.42,85.59l9.65-9.65a7.44,7.44,0,0,1,10.52,0l1.91,1.91a7.44,7.44,0,0,1,0,10.52L97.89,101a7.77,7.77,0,0,1-11,0l-1.45-1.45A7.74,7.74,0,0,1,83.19,94"/><path class="cls-1" d="M89.88,58.37h2a7.77,7.77,0,0,1,7.77,7.77V83a0,0,0,0,1,0,0H82.12a0,0,0,0,1,0,0V66.14a7.77,7.77,0,0,1,7.77-7.77Z" transform="translate(76.6 -43.58) rotate(45)"/><path class="cls-1" d="M94.2,115l1.36,1.36c2.85,2.85,5.38,3.83,8.23,1l14.63-13.53a7.3,7.3,0,0,0,0-10.32l-1.36-1.36a7.3,7.3,0,0,0-10.32,0L94.2,104.66A7.3,7.3,0,0,0,94.2,115Z"/><path class="cls-1" d="M11.12,118.15,34.23,95l.5-22.37,5-9.94,23.86-2L91.4,88.57S83,104,61.08,82.11c0,0,11.43,18.39-2,31.82"/></svg>