<svg id="Layer_1" data-name="Layer 1" xmlns="http://www.w3.org/2000/svg" viewBox="0 0 166.83 166.28"><defs><style>.cls-1{fill:none;}.cls-1,.cls-2{stroke:#000;stroke-linecap:round;stroke-linejoin:round;stroke-width:6px;}.cls-2{fill:#fff;}</style></defs><title>build</title><path class="cls-1" d="M137,155,122.82,137.9a8.89,8.89,0,0,1,1.3-12.61,9.07,9.07,0,0,1,12.56,1.5l14,16.92a1.48,1.48,0,0,0,2.48-.28A26.06,26.06,0,0,0,123,107l-.28.08-12-14.44-6.87-8.29L73.35,47.52l.14-.26A26.07,26.07,0,0,0,43.32,10.85a1.49,1.49,0,0,0-.74,2.39l14,16.92a9.08,9.08,0,0,1-.86,12.62,8.88,8.88,0,0,1-12.63-1.06L28.91,24.57a1.48,1.48,0,0,0-2.48.29A26,26,0,0,0,56.88,61.17L87.42,98l6.88,8.29,12,14.44a26.06,26.06,0,0,0,30,36.67A1.49,1.49,0,0,0,137,155Z"/><polyline class="cls-1" points="102.08 117.97 84.97 135.08 67.67 131.73 46.18 153.22"/><path class="cls-2" d="M76.21,48.95h2A7.77,7.77,0,0,1,86,56.71V70a0,0,0,0,1,0,0H68.45a0,0,0,0,1,0,0V56.71a7.77,7.77,0,0,1,7.77-7.77Z" transform="translate(64.69 -37.19) rotate(45)"/><path class="cls-2" d="M96.52,72.05h2.7a7.44,7.44,0,0,1,7.44,7.44V97.33a7.77,7.77,0,0,1-7.77,7.77h-2a7.77,7.77,0,0,1-7.77-7.77V79.49a7.44,7.44,0,0,1,7.44-7.44Z" transform="translate(91.3 -43.26) rotate(45)"/><path class="cls-2" d="M89.88,58.37h2a7.77,7.77,0,0,1,7.77,7.77V83a0,0,0,0,1,0,0H82.12a0,0,0,0,1,0,0V66.14A7.77,7.77,0,0,1,89.88,58.37Z" transform="translate(76.6 -43.58) rotate(45)"/><rect class="cls-2" x="98.06" y="88.06" width="16.52" height="32.34" rx="7.3" ry="7.3" transform="translate(104.84 -44.65) rotate(45)"/><path class="cls-2" d="M11.12,118.15,34.23,95l.5-22.37,5-10,23.86-2L91.4,88.57S83,104,61.08,82.11c0,0,11.43,18.4-2,31.82"/></svg>