<svg id="Layer_1" data-name="Layer 1" xmlns="http://www.w3.org/2000/svg" viewBox="0 0 166.83 166.28"><defs><style>.cls-1{fill:none;}.cls-1,.cls-3{stroke:#fff;stroke-linecap:round;stroke-linejoin:round;stroke-width:4px;}.cls-2,.cls-3{fill:#fff;}</style></defs><title>control</title><polygon class="cls-1" points="123.62 93.64 163.83 163.28 83.42 163.28 3 163.28 43.21 93.64 123.62 93.64"/><polyline class="cls-1" points="63.18 38.28 83.55 3 103.65 37.82"/><path class="cls-1" d="M83.42,79.78c19,0,29-15,29-15s-10-15-29-15-29,15-29,15S64.42,79.78,83.42,79.78Z"/><circle class="cls-1" cx="83.42" cy="64.78" r="14"/><circle class="cls-2" cx="83.42" cy="64.78" r="6"/><line class="cls-1" x1="63.92" y1="38.28" x2="102.92" y2="38.28"/><line class="cls-3" x1="13.16" y1="62.28" x2="36.68" y2="62.28"/><line class="cls-3" x1="21.72" y1="36.92" x2="42.68" y2="47.61"/><line class="cls-3" x1="21.72" y1="87.61" x2="42.68" y2="76.92"/><line class="cls-3" x1="153.68" y1="62.28" x2="130.16" y2="62.28"/><line class="cls-3" x1="145.11" y1="36.92" x2="124.16" y2="47.61"/><line class="cls-3" x1="145.11" y1="87.61" x2="124.16" y2="76.92"/><line class="cls-1" x1="30.42" y1="116.62" x2="136.42" y2="116.62"/><line class="cls-1" x1="16.42" y1="139.95" x2="150.42" y2="139.95"/><line class="cls-1" x1="61.92" y1="94.28" x2="61.92" y2="116.28"/><line class="cls-1" x1="104.92" y1="94.28" x2="104.92" y2="116.28"/><line class="cls-1" x1="83.72" y1="117.28" x2="83.72" y2="139.28"/><line class="cls-1" x1="123.92" y1="117.28" x2="123.92" y2="139.28"/><line class="cls-1" x1="42.92" y1="117.28" x2="42.92" y2="139.28"/><line class="cls-1" x1="58.92" y1="140.28" x2="58.92" y2="162.28"/><line class="cls-1" x1="107.92" y1="140.28" x2="107.92" y2="162.28"/><line class="cls-1" x1="74.42" y1="19.28" x2="92.42" y2="19.28"/><line class="cls-1" x1="83.42" y1="19.28" x2="83.42" y2="38.28"/></svg>