<svg id="Seattle_Logo" data-name="Seattle Logo" xmlns="http://www.w3.org/2000/svg" viewBox="0 0 283.79 115.23"><defs><style>.cls-1{fill:#515e66;}.cls-2{fill:#55c3c3;}</style></defs><title>ixda_logo</title><path class="cls-1" d="M.59,1.61H14V90.12H.59Z"/><path class="cls-1" d="M136.05,1.61h31c11.68,0,21.25,5.22,27,14.92,4.35,7.45,4.72,10.81,4.72,29.33,0,19.89-1,23.38-5,29.59-5.22,8.2-14.42,14.67-27.6,14.67H136.05Zm13.43,75.83h16c7.58,0,12.93-2.61,16.41-7.71,3-4.47,3.36-7,3.36-23.37,0-15.91-.38-19.76-4-24.61-4.1-5.6-8.58-7.46-15.79-7.46h-16Z"/><path class="cls-1" d="M262.78,70.35H229.21l-6.83,19.77H208.2L240.41,1.61H251.6l32.19,88.51H269.62Zm-3.85-11.93-12.8-38.67h-.26l-12.8,38.67Z"/><path class="cls-2" d="M76.55,19.3a2,2,0,0,1-2.78,0l-8-8a2,2,0,0,1,0-2.79l8-8a2,2,0,0,1,2.78,0l8,8a2,2,0,0,1,0,2.79Z"/><path class="cls-2" d="M36,23.19v0Z"/><path class="cls-2" d="M47.09,90.12h0Z"/><path class="cls-2" d="M101.1,12.13l.09-.06Z"/><path class="cls-2" d="M48.72,90a1.59,1.59,0,0,1-.39.08Z"/><path class="cls-2" d="M36,24.24l0,.13Z"/><path class="cls-2" d="M36,78.11c0,.26,0,.54,0,.85Z"/><path class="cls-2" d="M101.42,90a2.29,2.29,0,0,0,.64.14A2,2,0,0,1,101.42,90Z"/><path class="cls-2" d="M49.56,89.57a1.75,1.75,0,0,1-.53.35A2,2,0,0,0,49.56,89.57Z"/><path class="cls-2" d="M114.32,78V79C114.32,78.64,114.33,78.3,114.32,78Z"/><path class="cls-2" d="M103.23,90.12h0Z"/><path class="cls-2" d="M100.17,88.19V77.91A1.94,1.94,0,0,1,102.11,76h10.27a1.94,1.94,0,0,1,1.79,1.18,2.23,2.23,0,0,0-.45-.68L89.6,52.35a2,2,0,0,1,0-2.78l23.93-23.94a2.31,2.31,0,0,0,.14-.19,1.91,1.91,0,0,1-1.28.51H102.11A1.94,1.94,0,0,1,100.17,24V13.74a1.92,1.92,0,0,1,.54-1.32s-.08.05-.11.09l-24,24a2,2,0,0,1-2.78,0l-24.06-24-.07,0a1.9,1.9,0,0,1,.5,1.26V24A1.93,1.93,0,0,1,48.21,26H37.93a1.92,1.92,0,0,1-1.3-.52l0,.05,24,24.09a2,2,0,0,1,0,2.78L36.62,76.45a2,2,0,0,0-.45.68A1.93,1.93,0,0,1,37.93,76H48.21a1.94,1.94,0,0,1,1.93,1.93V88.19a1.89,1.89,0,0,1-.56,1.36l.1-.07L73.77,65.41a2,2,0,0,1,2.78,0l24.11,24.1a1.83,1.83,0,0,0,.68.45A2,2,0,0,1,100.17,88.19Z"/><path class="cls-2" d="M114.17,77.16a2.21,2.21,0,0,1,.15.73A2.49,2.49,0,0,0,114.17,77.16Z"/><path class="cls-2" d="M36.13,77.28a2.53,2.53,0,0,0-.12.56A1.75,1.75,0,0,1,36.13,77.28Z"/><path class="cls-1" d="M48.21,11.81H37.93A1.94,1.94,0,0,0,36,13.74V24A1.94,1.94,0,0,0,37.93,26H48.21A1.93,1.93,0,0,0,50.14,24V13.74A1.94,1.94,0,0,0,48.21,11.81Z"/><path class="cls-1" d="M112.38,11.81H102.11a1.94,1.94,0,0,0-1.94,1.93V24A1.94,1.94,0,0,0,102.11,26h10.28A1.94,1.94,0,0,0,114.32,24V13.74A1.94,1.94,0,0,0,112.38,11.81Z"/><path class="cls-1" d="M48.21,76H37.93A1.94,1.94,0,0,0,36,77.91V88.19a1.94,1.94,0,0,0,1.93,1.93H48.21a1.93,1.93,0,0,0,1.93-1.93V77.91A1.94,1.94,0,0,0,48.21,76Z"/><path class="cls-1" d="M112.38,76H102.11a1.94,1.94,0,0,0-1.94,1.93V88.19a1.94,1.94,0,0,0,1.94,1.93h10.28a1.94,1.94,0,0,0,1.93-1.93V77.91A1.94,1.94,0,0,0,112.38,76Z"/><path class="cls-1" d="M1.09,112.48a5.06,5.06,0,0,0,3.11,1.09c1.36,0,2.18-.62,2.18-1.52a1.43,1.43,0,0,0-1.44-1.48l-1.44-.2a3.05,3.05,0,0,1-2.92-3.08c0-1.88,1.31-3.21,3.58-3.21a6.43,6.43,0,0,1,3.55,1.14l-.92,1.37a5.18,5.18,0,0,0-2.71-.84c-1,0-1.83.52-1.83,1.57,0,.61.44,1.23,1.55,1.4.3,0,.71.11,1.24.17a3.13,3.13,0,0,1,3,3.16c0,2-1.49,3.18-3.85,3.18A6.16,6.16,0,0,1,0,113.73Z"/><path class="cls-1" d="M46.56,104.18h7v1.57H48.22v3.12h4.56v1.48H48.22v3.22h5.35v1.57h-7Z"/><path class="cls-1" d="M98.19,112.69H94l-.85,2.45H91.43l4-11H96.8l4,11H99Zm-.48-1.48-1.59-4.79h0l-1.58,4.79Z"/><path class="cls-1" d="M141.32,105.65h-3v-1.47H146v1.47h-3v9.49h-1.66Z"/><path class="cls-1" d="M187.37,105.65h-3v-1.47H192v1.47h-3v9.49h-1.66Z"/><path class="cls-1" d="M230.74,104.18h1.66v9.39h5.35v1.57h-7Z"/><path class="cls-1" d="M276.78,104.18h7v1.57h-5.34v3.12H283v1.48h-4.56v3.22h5.34v1.57h-7Z"/></svg>