<svg id="Layer_1" data-name="Layer 1" xmlns="http://www.w3.org/2000/svg" viewBox="0 0 166.83 166.28"><defs><style>.cls-1{fill:none;stroke:#2d172c;stroke-linecap:round;stroke-linejoin:round;stroke-width:4px;}</style></defs><title>wrench</title><path class="cls-1" d="M73.35,47.52l.13-.26A26.06,26.06,0,0,0,43.32,10.85a1.5,1.5,0,0,0-1,1.84,1.61,1.61,0,0,0,.29.55l14,16.92a9.06,9.06,0,0,1-.86,12.62,8.88,8.88,0,0,1-12.52-.93l-.11-.13L28.91,24.57a1.5,1.5,0,0,0-2.1-.2,1.47,1.47,0,0,0-.38.48A26.06,26.06,0,0,0,56.88,61.17l47.28,60.58c-4.36,8.92-1.32,19,5.42,27.11a26.06,26.06,0,0,0,26.7,8.57,1.5,1.5,0,0,0,1.05-1.83,1.54,1.54,0,0,0-.33-.6l-14.18-17.1A8.87,8.87,0,0,1,124,125.4l.13-.11a9.07,9.07,0,0,1,12.56,1.5l14,16.92a1.5,1.5,0,0,0,2.1.2,1.47,1.47,0,0,0,.38-.48A26.06,26.06,0,0,0,123,107l-.28.08Z"/></svg>